<?xml version="1.0" encoding="UTF-8" standalone="no"?>
<svg
   width="197.5683"
   height="71.896347"
   overflow="hidden"
   version="1.1"
   id="svg16"
   sodipodi:docname="illuma_logo.svg"
   inkscape:version="1.4 (86a8ad7, 2024-10-11)"
   xmlns:inkscape="http://www.inkscape.org/namespaces/inkscape"
   xmlns:sodipodi="http://sodipodi.sourceforge.net/DTD/sodipodi-0.dtd"
   xmlns="http://www.w3.org/2000/svg"
   xmlns:svg="http://www.w3.org/2000/svg">
  <defs
     id="defs16" />
  <sodipodi:namedview
     id="namedview16"
     pagecolor="#ffffff"
     bordercolor="#000000"
     borderopacity="0.25"
     inkscape:showpageshadow="2"
     inkscape:pageopacity="0.0"
     inkscape:pagecheckerboard="0"
     inkscape:deskcolor="#d1d1d1"
     inkscape:zoom="3.2754237"
     inkscape:cx="105.63519"
     inkscape:cy="41.979301"
     inkscape:window-width="1920"
     inkscape:window-height="991"
     inkscape:window-x="1911"
     inkscape:window-y="-9"
     inkscape:window-maximized="1"
     inkscape:current-layer="svg16" />
  <g
     id="g16"
     transform="translate(-12.2097,-76.1264)">
    <path
       d="m 99.6444,146.435 c -0.0819,-0.246 -0.3278,-0.41 -0.6555,-0.656 -0.3278,-0.246 -0.5736,-0.41 -0.5736,-0.492 0,-0.081 -0.082,-0.245 -0.1639,-0.491 -0.082,-0.246 -0.2459,-0.41 -0.3278,-0.492 -0.1639,-0.164 -0.082,-0.573 0.0819,-1.147 0.2459,-0.656 0.4917,-1.393 0.9834,-2.295 0.4097,-0.901 0.9014,-1.802 1.3931,-2.704 0.246,-0.246 0.41,-0.491 0.655,-0.819 0.246,-0.328 0.41,-0.574 0.492,-0.656 0,-0.082 0,-0.164 0.082,-0.327 0.082,-0.164 0.164,-0.164 0.246,-0.164 l 0.328,-0.656 c 0.082,-0.082 0.246,-0.328 0.491,-0.655 0.246,-0.328 0.574,-0.656 0.984,-1.066 0.409,-0.409 0.819,-0.737 1.229,-1.065 0.41,-0.328 0.737,-0.574 0.983,-0.738 0.574,-0.409 1.147,-0.573 1.721,-0.491 0.574,0 1.065,0.246 1.557,0.573 0.082,0.082 0.246,0.246 0.574,0.492 0.245,0.246 0.573,0.492 0.983,0.82 0.328,0.327 0.655,0.573 0.901,0.819 l 1.475,1.311 -0.655,1.967 c -0.328,1.065 -0.41,1.966 -0.246,2.786 0.164,0.819 0.41,1.475 0.737,2.048 0.164,0.328 0.328,0.492 0.574,0.656 0.246,0.164 0.492,0.246 0.901,0.328 0.246,0 0.41,0.082 0.574,0.246 0.164,0.164 0.246,0.327 0.246,0.655 0,0.656 -0.082,1.065 -0.328,1.393 -0.246,0.246 -0.492,0.41 -0.737,0.492 -0.902,0.082 -1.721,0 -2.459,-0.246 -0.819,-0.328 -1.475,-1.065 -2.13,-2.294 -0.082,-0.164 -0.246,-0.492 -0.41,-0.902 -0.164,-0.409 -0.246,-0.737 -0.328,-0.819 -0.082,0.164 -0.246,0.328 -0.41,0.491 -0.163,0.164 -0.327,0.41 -0.491,0.574 -1.885,1.885 -3.442,3.114 -4.835,3.688 -1.393,0.409 -2.54,0.409 -3.4416,-0.164 z m 3.0316,-3.606 c 0.41,-0.246 0.902,-0.573 1.557,-1.147 0.902,-0.738 1.639,-1.393 2.213,-1.885 0.573,-0.491 1.147,-1.147 1.721,-1.966 l 0.901,-1.394 c -0.246,-0.573 -0.492,-0.983 -0.737,-1.229 -0.246,-0.164 -0.41,-0.246 -0.656,-0.246 -0.328,0 -0.738,0.246 -1.229,0.656 -0.492,0.41 -0.984,1.065 -1.639,1.885 -0.574,0.819 -1.229,1.884 -1.967,3.114 -0.328,0.573 -0.737,1.393 -1.065,2.458 0.246,0.082 0.492,0 0.901,-0.246 z"
       fill="#9f237e"
       id="path1" />
    <path
       d="m 127.014,147.992 c -0.328,0.082 -0.656,0 -0.983,-0.246 -0.328,-0.246 -0.574,-0.492 -0.656,-0.82 -0.164,-0.409 -0.246,-0.819 -0.328,-1.229 0,-0.41 -0.082,-0.819 -0.082,-1.311 v -1.311 l -1.639,1.475 c -0.901,0.819 -1.72,1.475 -2.54,1.803 -0.819,0.328 -1.475,0.573 -2.13,0.573 -0.328,-0.082 -0.656,-0.245 -1.066,-0.573 -0.409,-0.328 -0.819,-0.738 -1.147,-1.147 -0.328,-0.41 -0.574,-0.738 -0.656,-0.984 -0.163,-0.41 -0.163,-0.901 -0.163,-1.557 0.082,-0.655 0.245,-1.393 0.491,-2.212 0.246,-0.82 0.574,-1.557 0.984,-2.377 0.409,-0.737 0.819,-1.393 1.311,-1.966 0.901,-1.311 1.966,-2.131 3.277,-2.459 1.312,-0.327 2.459,-0.245 3.442,0.328 0.492,0.246 0.82,0.328 1.065,0.246 0.246,-0.082 0.328,-0.246 0.41,-0.492 0.082,-0.409 0.246,-0.819 0.328,-1.229 0.164,-0.41 0.328,-0.901 0.574,-1.639 0.655,-1.966 1.229,-3.605 1.72,-4.753 0.492,-1.147 0.902,-2.13 1.311,-2.95 0.328,-0.573 0.574,-1.065 0.902,-1.229 0.328,-0.246 0.573,-0.327 0.737,-0.327 0.328,0 0.656,0.081 1.066,0.327 0.409,0.246 0.737,0.492 0.819,0.902 0.082,0.246 0.164,0.491 0.164,0.737 0,0.246 -0.082,0.574 -0.246,0.82 -0.328,0.655 -0.737,1.475 -1.229,2.54 -0.492,1.065 -0.901,2.212 -1.393,3.442 -0.492,1.229 -0.901,2.458 -1.311,3.687 -0.41,1.229 -0.738,2.295 -0.984,3.196 -0.163,0.574 -0.245,1.311 -0.409,2.212 -0.082,0.902 -0.164,1.803 -0.164,2.787 0,0.901 -0.082,1.802 0,2.458 0,0.737 0.082,1.229 0.082,1.393 0.164,0.492 0.164,0.901 0,1.229 -0.164,0.246 -0.41,0.41 -0.656,0.574 -0.328,0 -0.573,0.082 -0.901,0.082 z m -6.556,-4.753 c 0.41,-0.164 0.738,-0.328 0.984,-0.492 0.245,-0.164 0.655,-0.41 1.065,-0.737 0.819,-0.574 1.393,-1.148 1.721,-1.557 0.328,-0.41 0.655,-0.984 0.819,-1.639 0.164,-0.41 0.164,-0.738 0,-1.065 -0.082,-0.328 -0.328,-0.574 -0.573,-0.82 -0.328,-0.246 -0.656,-0.328 -1.148,-0.328 -0.409,0 -0.983,0.328 -1.557,0.82 -0.655,0.573 -1.147,1.229 -1.638,2.048 -0.492,0.82 -0.82,1.885 -1.148,3.278 -0.082,0.246 0,0.41 0.246,0.574 0.41,0.082 0.738,0.082 1.229,-0.082 z"
       fill="#9f237e"
       id="path2" />
    <path
       d="m 136.683,146.189 c -0.246,0.164 -0.573,0.246 -0.983,0.328 -0.41,0 -0.738,-0.164 -0.983,-0.41 -0.492,-0.492 -0.902,-1.393 -1.311,-2.868 -0.41,-1.393 -0.574,-3.36 -0.574,-5.736 0.082,-1.066 0.164,-2.049 0.164,-3.032 0,-0.984 0,-1.475 0,-1.557 0.328,-0.164 0.655,-0.246 1.147,-0.164 0.492,0.082 0.819,0.164 1.147,0.328 0.246,0.164 0.492,0.328 0.574,0.573 0.082,0.246 0.164,0.738 0.246,1.393 0,0.656 0.082,1.721 0.082,3.032 -0.082,1.066 -0.164,1.885 -0.164,2.541 0,0.655 0,0.983 0.082,1.147 0.082,0.164 0.164,0.246 0.164,0.328 0,0 0.163,-0.164 0.573,-0.574 0.246,-0.328 0.41,-0.656 0.656,-1.147 0.246,-0.492 0.491,-0.82 0.655,-1.147 0.328,-0.41 0.574,-0.738 0.82,-1.066 0.246,-0.327 0.409,-0.573 0.573,-0.655 0.082,-0.246 0.246,-0.41 0.41,-0.574 0.164,-0.164 0.328,-0.41 0.41,-0.573 0.328,-0.492 0.573,-0.902 0.901,-1.23 0.328,-0.327 0.492,-0.491 0.656,-0.491 0.082,0.082 0.328,0.082 0.573,-0.082 0.328,-0.082 0.492,-0.164 0.574,-0.164 0.164,-0.164 0.41,-0.164 0.737,0 0.082,0.082 0.164,0.164 0.246,0.246 0.082,0.082 0.082,0.164 0.082,0.327 0,0.164 -0.082,0.492 -0.246,0.984 -0.163,0.491 -0.327,0.983 -0.491,1.475 -0.164,0.491 -0.328,0.737 -0.492,0.819 -0.164,0.164 -0.328,0.328 -0.41,0.41 -0.082,0.164 -0.245,0.492 -0.573,0.983 -0.328,0.492 -0.656,1.066 -1.147,1.639 -0.41,0.656 -0.902,1.229 -1.312,1.803 -0.409,0.574 -0.819,1.147 -1.229,1.557 -0.246,0.41 -0.573,0.655 -0.901,0.983 -0.164,0.328 -0.492,0.492 -0.656,0.574 z"
       fill="#9f237e"
       id="path3" />
    <path
       d="m 147.582,147.172 c -0.656,0 -1.147,-0.328 -1.639,-0.983 -0.492,-0.656 -0.737,-1.475 -0.819,-2.458 0,-0.246 0.082,-0.492 0.082,-0.902 0,-0.41 0.081,-0.819 0.163,-1.229 0.082,-0.492 0.246,-1.147 0.41,-1.967 0.164,-0.819 0.41,-1.557 0.574,-2.376 0.164,-0.82 0.409,-1.475 0.573,-2.131 0.164,-0.573 0.246,-0.983 0.246,-1.065 0.164,-0.41 0.492,-0.492 1.065,-0.246 0.574,0.246 1.066,0.574 1.394,1.229 0.163,0.246 0.245,0.492 0.327,0.738 0,0.328 0,0.737 -0.082,1.229 -0.082,0.574 -0.327,1.393 -0.655,2.458 -0.328,1.066 -0.492,1.885 -0.656,2.541 -0.164,0.655 -0.164,1.311 -0.164,2.048 -0.082,1.229 -0.245,2.049 -0.327,2.459 -0.082,0.491 -0.246,0.737 -0.492,0.655 z m 3.687,-16.389 c -0.082,0.082 -0.163,0.082 -0.327,0.082 -0.082,0 -0.246,-0.082 -0.492,-0.246 -0.164,0 -0.41,-0.163 -0.656,-0.409 -0.245,-0.246 -0.491,-0.492 -0.737,-0.656 -0.164,-0.246 -0.328,-0.41 -0.328,-0.41 0,-0.245 0,-0.655 0.082,-1.229 0.082,-0.573 0.246,-1.147 0.41,-1.639 0.246,-0.491 0.573,-0.819 0.901,-0.819 0.082,0 0.328,0.082 0.656,0.164 0.328,0.082 0.737,0.246 1.147,0.41 0.246,0.409 0.41,0.901 0.574,1.556 0.163,0.656 0.163,1.23 0.082,1.803 0,0.574 -0.492,1.066 -1.312,1.393 z"
       fill="#9f237e"
       id="path4" />
    <path
       d="m 156.268,147.5 c -1.393,0 -2.458,-0.41 -3.114,-1.311 -0.164,-0.41 -0.246,-0.82 -0.246,-1.311 0,-0.41 0.082,-0.738 0.328,-0.984 0.164,-0.163 0.41,-0.163 0.656,0.164 0.327,0.246 0.819,0.328 1.475,0.328 0.327,0 0.573,0 0.819,0 0.246,0 0.574,0 0.901,-0.082 0.574,-0.082 0.984,-0.246 1.148,-0.573 0.164,-0.328 0.164,-0.574 -0.164,-0.82 v 0 c -0.738,-0.164 -1.393,-0.41 -2.131,-0.819 -0.737,-0.41 -1.229,-0.738 -1.721,-1.148 -0.491,-0.409 -0.737,-0.819 -0.819,-1.229 -0.246,-0.901 -0.164,-1.803 0.164,-2.704 0.328,-0.901 0.819,-1.721 1.393,-2.376 0.246,-0.164 0.574,-0.41 0.983,-0.656 0.41,-0.328 0.738,-0.492 0.902,-0.492 v 0 c 0.491,-0.491 1.065,-0.983 1.72,-1.311 0.656,-0.327 1.394,-0.655 2.213,-0.901 l 0.656,-0.082 c 0.327,-0.082 0.573,-0.082 0.819,-0.082 0,0 0,0 0.164,0.082 0.164,0.082 0.328,0.082 0.41,0.082 0.163,0.082 0.327,0.082 0.491,0.082 0.41,0.082 0.738,0.246 1.066,0.574 0.327,0.327 0.655,0.737 0.901,1.147 0.246,0.409 0.328,0.819 0.246,1.229 -0.082,0.574 -0.328,1.229 -0.656,1.803 -0.41,0.573 -0.737,0.901 -1.229,0.983 0.082,0 0,-0.082 -0.164,-0.164 -0.164,-0.082 -0.328,-0.164 -0.41,-0.246 v 0.164 c 0,-0.164 -0.082,-0.328 -0.082,-0.41 -0.081,-0.163 -0.163,-0.409 -0.245,-0.573 0,-0.246 -0.082,-0.41 0,-0.738 0.082,-0.327 0.082,-0.491 0,-0.491 0,-0.082 -0.164,-0.082 -0.492,-0.082 -0.328,-0.082 -0.819,-0.082 -1.311,0.082 -0.492,0.164 -0.983,0.409 -1.475,0.737 -0.492,0.328 -0.902,0.656 -1.147,0.82 -0.246,0.245 -0.41,0.409 -0.574,0.655 -0.164,0.164 -0.246,0.492 -0.41,0.82 -0.082,0.164 -0.164,0.327 -0.246,0.491 -0.081,0.164 -0.081,0.246 -0.081,0.41 0,0.246 0.245,0.574 0.655,0.819 0.41,0.246 1.147,0.574 2.049,0.984 0.737,0.328 1.147,0.655 1.393,1.229 0.246,0.574 0.409,0.983 0.655,1.393 0.082,0.082 0.082,0.328 0.164,0.574 0.082,0.245 0.082,0.409 0,0.491 0.082,0.082 0.082,0.082 0.082,0.164 v 0 c 0.246,0.41 0.164,0.82 -0.082,1.229 -0.246,0.41 -0.737,0.82 -1.311,1.23 -0.574,0.327 -1.229,0.573 -1.967,0.737 v 0 c -0.409,0.082 -0.819,0.082 -1.147,0.082 -0.491,0 -0.819,0 -1.229,0 z"
       fill="#9f237e"
       id="path5" />
    <path
       d="m 169.953,147.582 c -0.328,0 -0.656,0 -0.82,-0.082 -0.246,-0.082 -0.491,-0.246 -0.819,-0.41 -0.574,-0.409 -1.065,-0.983 -1.475,-1.639 -0.41,-0.655 -0.574,-1.229 -0.574,-1.639 0.082,-0.245 0,-0.573 0,-0.901 -0.164,-0.164 -0.246,-0.246 -0.164,-0.246 0.082,0 0.082,-0.082 0.082,-0.246 0.246,-0.082 0.246,-0.163 0.082,-0.409 -0.082,-0.246 0,-0.656 0.164,-1.475 0.164,-0.738 0.41,-1.475 0.656,-2.131 0.164,-0.328 0.327,-0.655 0.573,-1.147 0.246,-0.492 0.574,-0.983 0.82,-1.475 0.246,-0.492 0.573,-0.901 0.901,-1.147 0.574,-0.656 1.065,-1.229 1.557,-1.639 0.492,-0.41 0.983,-0.738 1.557,-0.984 0.492,-0.245 1.065,-0.327 1.639,-0.245 0.574,0 0.983,0.245 1.475,0.573 0.655,0.164 1.229,0.492 1.721,0.82 0.491,0.409 0.819,0.901 1.065,1.639 0.246,0.737 0.246,1.638 0.246,2.704 -0.082,1.065 -0.492,2.376 -1.393,4.015 -0.492,1.065 -0.984,1.885 -1.475,2.458 -0.492,0.656 -1.065,1.23 -1.803,1.803 -0.492,0.41 -1.147,0.82 -1.967,1.147 -0.819,0.328 -1.475,0.574 -2.048,0.656 z m 3.441,-5.982 c 0.328,-0.492 0.574,-0.901 0.82,-1.393 0.164,-0.41 0.41,-1.065 0.573,-1.885 0.082,-0.328 0.164,-0.655 0.164,-1.065 0,-0.41 0,-0.82 0,-1.147 0,-0.328 -0.164,-0.574 -0.327,-0.574 -0.328,-0.164 -0.656,-0.164 -1.066,0 -0.327,0.082 -0.737,0.41 -1.229,0.983 -0.41,0.492 -0.737,0.902 -0.983,1.312 -0.246,0.409 -0.492,0.901 -0.656,1.475 -0.164,0.573 -0.409,1.311 -0.655,2.212 -0.246,0.901 -0.246,1.557 0,2.131 0.164,0.491 0.573,0.655 1.147,0.409 0.492,-0.246 1.229,-1.065 2.212,-2.458 z"
       fill="#9f237e"
       id="path6" />
    <path
       d="m 180.933,146.189 c -0.246,-0.164 -0.491,-0.41 -0.737,-0.738 -0.246,-0.327 -0.41,-0.737 -0.328,-1.229 0.082,-0.737 0.164,-1.393 0.328,-1.966 0.164,-0.574 0.328,-1.23 0.491,-1.967 0.082,-0.328 0.164,-0.82 0.41,-1.639 0.246,-0.738 0.492,-1.557 0.82,-2.458 0.327,-0.902 0.655,-1.721 0.983,-2.541 0.328,-0.819 0.656,-1.393 0.901,-1.802 0.328,-0.246 0.738,-0.41 1.311,-0.41 0.574,0 0.984,0.082 1.148,0.328 0.327,0.245 0.409,0.655 0.246,1.229 -0.082,0.573 -0.492,1.475 -1.148,2.786 -0.164,0.328 -0.327,0.655 -0.491,0.983 -0.164,0.328 -0.328,0.656 -0.41,0.902 -0.082,0.245 -0.082,0.327 0.082,0.327 0.164,-0.327 0.41,-0.655 0.901,-0.983 0.41,-0.41 0.902,-0.737 1.311,-1.147 0.492,-0.41 0.902,-0.738 1.311,-0.983 0.41,-0.328 0.738,-0.492 0.902,-0.574 0.246,-0.164 0.492,-0.246 0.737,-0.328 0.246,-0.082 0.492,-0.164 0.574,-0.246 0.574,-0.327 1.311,-0.409 1.967,-0.327 0.737,0.081 1.147,0.327 1.311,0.655 0,0.246 0.164,0.41 0.491,0.656 0.082,0 0.164,0.082 0.164,0.245 0,0.164 -0.164,0.41 -0.573,0.82 -0.328,0.328 -0.738,0.492 -1.148,0.574 -0.327,0 -0.655,0.081 -0.901,0.163 -0.246,0.082 -0.574,0.246 -0.983,0.41 -0.984,0.574 -1.885,1.065 -2.704,1.557 -0.82,0.41 -1.639,1.147 -2.459,2.049 -0.164,0.246 -0.409,0.409 -0.573,0.573 -0.246,0.164 -0.41,0.41 -0.656,0.82 -0.164,0.164 -0.246,0.409 -0.41,0.901 -0.164,0.41 -0.245,0.902 -0.327,1.311 -0.082,0.41 -0.164,0.656 -0.164,0.738 -0.164,0.491 -0.328,0.901 -0.492,1.147 -0.328,0.41 -0.656,0.656 -0.901,0.819 -0.164,-0.082 -0.574,-0.245 -0.984,-0.655 z"
       fill="#9f237e"
       id="path7" />
    <path
       d="m 197.978,147.5 c -0.82,0 -1.639,-0.164 -2.295,-0.574 -0.655,-0.409 -1.229,-0.819 -1.721,-1.393 -0.409,-0.573 -0.655,-1.147 -0.655,-1.639 0,-0.245 0.082,-0.409 0.164,-0.491 0.082,-0.082 0.246,-0.164 0.41,-0.164 0.163,0 0.327,0.082 0.491,0.164 0.164,0.082 0.41,0.246 0.574,0.328 0.41,0.327 0.901,0.491 1.393,0.573 0.492,0.082 0.983,0.082 1.311,-0.082 0.328,-0.164 0.656,-0.41 0.656,-0.655 0,-0.082 -0.082,-0.328 -0.164,-0.656 -0.082,-0.328 -0.246,-0.655 -0.41,-0.983 -0.656,-0.984 -1.065,-1.885 -1.229,-2.786 -0.164,-0.902 -0.246,-1.803 -0.328,-2.705 0,-0.409 0.164,-0.819 0.492,-1.229 0.327,-0.491 0.737,-0.901 1.229,-1.393 0.573,-0.491 1.147,-0.901 1.803,-1.311 0.655,-0.41 1.311,-0.819 1.966,-1.065 0.656,-0.246 1.229,-0.492 1.639,-0.492 0.492,0 0.983,0 1.557,0.082 0.574,0 0.901,0.164 1.065,0.328 0.41,0.328 0.738,0.737 1.066,1.393 0.327,0.656 0.491,1.229 0.491,1.639 0,0.246 -0.082,0.492 -0.327,0.737 -0.246,0.328 -0.41,0.656 -0.656,0.984 -0.082,0.164 -0.164,0.409 -0.246,0.573 -0.082,0.164 -0.164,0.41 -0.246,0.656 -0.164,0.41 -0.409,0.492 -0.819,0.492 -0.41,-0.082 -0.82,-0.246 -1.147,-0.656 -0.328,-0.328 -0.492,-0.738 -0.492,-1.229 0,-0.41 0.082,-0.738 0.328,-1.065 0.246,-0.328 0.328,-0.492 0.328,-0.574 0,-0.082 0,-0.082 -0.082,-0.082 -0.082,0 -0.164,0 -0.246,0 -0.164,0 -0.492,0.082 -0.902,0.246 -0.409,0.164 -0.819,0.328 -1.311,0.573 -0.409,0.246 -0.819,0.574 -1.229,0.984 -0.246,0.328 -0.492,0.573 -0.655,0.901 -0.164,0.328 -0.246,0.656 -0.246,1.065 0,0.41 0.082,0.82 0.246,1.312 0.163,0.491 0.327,0.901 0.491,1.229 0.082,0.082 0.164,0.164 0.246,0.409 0.082,0.246 0.246,0.492 0.41,0.82 0.983,1.967 1.147,3.523 0.491,4.507 -0.491,0.737 -1.72,1.229 -3.441,1.229 z"
       fill="#9f237e"
       id="path8" />
    <path
       d="M 12.2097,76.1264 H 23.518 V 116.853 H 12.2097 Z"
       fill="#3c1952"
       id="path9" />
    <path
       d="M 38.9236,76.1264 H 27.6153 V 116.771 H 51.625 v -8.604 H 38.9236 Z"
       fill="#3c1952"
       id="path10" />
    <path
       d="M 64.9,76.1264 H 53.5916 v 40.6446 h 24.0098 v -8.604 H 64.9 Z"
       fill="#3c1952"
       id="path11" />
    <path
       d="m 103.168,99.7264 c 0,2.1306 -0.492,3.8516 -1.557,5.0806 -1.065,1.229 -2.6221,1.803 -4.6707,1.803 -2.0487,0 -3.6056,-0.574 -4.6709,-1.803 -0.9833,-1.229 -1.5569,-2.868 -1.5569,-5.0806 v -23.6 H 79.4041 v 23.6 c 0,3.7696 0.7375,6.9656 2.2125,9.5876 1.475,2.622 3.5237,4.589 6.1459,5.9 2.6222,1.311 5.5722,1.967 8.85,1.967 3.2778,0 6.3095,-0.656 9.0135,-1.967 2.705,-1.311 4.835,-3.278 6.474,-5.982 1.557,-2.622 2.376,-5.818 2.376,-9.5876 v -23.518 h -11.308 z"
       fill="#3c1952"
       id="path12" />
    <path
       d="m 118.737,95.875 c 0,-8.85 5.655,-16.307 13.521,-19.0111 l -0.246,-0.6556 h -13.684 v 40.7267 h 11.308 v -3.032 c -6.474,-3.524 -10.899,-10.243 -10.899,-18.028 z"
       fill="#3c1952"
       id="path13" />
    <path
       d="m 150.86,79.65 c 4.998,3.6875 8.194,9.5875 8.194,16.225 0,4.835 -1.721,9.26 -4.507,12.701 v 8.195 h 11.309 V 76.1264 h -13.603 z"
       fill="#3c1952"
       id="path14" />
    <path
       d="m 195.028,76.1264 h -13.029 l -14.832,40.6446 h 11.882 l 2.212,-6.638 h 14.422 l 2.213,6.638 h 11.882 z m -10.899,25.4026 4.343,-13.1929 4.425,13.1929 z"
       fill="#3c1952"
       id="path15" />
    <path
       d="m 150.86,79.65 -8.686,22.944 -9.916,-25.7301 c -7.866,2.7041 -13.521,10.243 -13.521,19.0111 0,7.785 4.425,14.586 10.899,17.864 V 94.1541 l 7.457,21.7149 c 0.574,0.082 1.229,0.082 1.803,0.082 3.196,0 6.228,-0.737 8.932,-2.048 l 6.719,-19.585 v 14.258 c 2.868,-3.441 4.507,-7.866 4.507,-12.701 0,-6.6375 -3.196,-12.5375 -8.194,-16.225 z"
       fill="#ef3742"
       id="path16" />
  </g>
</svg>
